<?xml version="1.0" standalone="no"?>
<!DOCTYPE svg PUBLIC "-//W3C//DTD SVG 20010904//EN"
 "http://www.w3.org/TR/2001/REC-SVG-20010904/DTD/svg10.dtd">
<svg version="1.0" xmlns="http://www.w3.org/2000/svg"
 width="1475.000000pt" height="297.000000pt" viewBox="0 0 1475.000000 297.000000"
 preserveAspectRatio="xMidYMid meet">

<g transform="translate(0.000000,297.000000) scale(0.100000,-0.100000)"
fill="#000000" stroke="none">
<path d="M1173 2928 c-64 -68 -132 -237 -223 -553 -50 -174 -73 -265 -83 -322
l-6 -31 202 -75 c190 -71 339 -117 378 -117 12 0 19 12 24 42 5 30 18 54 44
79 31 30 54 40 156 68 261 71 320 125 333 303 l5 77 -34 34 c-43 43 -103 57
-239 57 l-99 0 -35 68 c-41 77 -77 119 -114 134 -15 6 -63 13 -107 17 l-80 6
-6 98 c-10 146 -49 185 -116 115z"/>
<path d="M2471 2164 c-17 -19 -49 -70 -71 -113 l-39 -78 -53 -7 c-118 -15
-146 -33 -190 -119 -16 -33 -55 -84 -89 -116 -59 -58 -60 -59 -53 -102 17
-120 44 -163 126 -205 47 -24 108 -97 108 -130 0 -25 20 -23 122 11 109 38
329 143 333 160 1 6 12 69 23 140 22 140 20 173 -16 275 -11 30 -32 97 -46
148 -37 132 -59 172 -95 172 -21 0 -38 -10 -60 -36z"/>
<path d="M882 1888 c-22 -28 -209 -518 -287 -753 -123 -369 -213 -755 -203
-872 2 -24 0 -43 -4 -43 -18 0 -73 60 -122 133 -36 54 -75 135 -116 239 -34
87 -69 167 -79 180 l-19 22 -20 -33 c-78 -129 2 -496 137 -631 83 -83 214
-126 308 -101 35 9 59 8 125 -5 147 -30 342 -10 763 77 83 17 119 19 213 14
125 -8 162 0 181 41 6 14 11 37 11 52 0 15 -29 259 -65 542 -36 283 -75 601
-86 705 -11 105 -22 200 -25 212 -3 17 -22 27 -96 51 -157 51 -586 182 -596
182 -5 0 -14 -6 -20 -12z"/>
<path d="M12905 1886 c-114 -28 -232 -123 -307 -247 -108 -178 -117 -424 -24
-615 68 -138 187 -248 314 -289 81 -27 228 -18 307 18 130 60 219 155 291 312
l36 77 -4 177 -3 176 -43 86 c-50 102 -132 197 -215 250 -95 62 -235 84 -352
55z m280 -115 c204 -101 309 -357 246 -603 -28 -108 -65 -174 -136 -244 -95
-93 -124 -104 -286 -104 l-134 0 -75 58 c-184 141 -259 381 -186 597 57 168
146 266 290 317 81 29 196 21 281 -21z"/>
<path d="M4200 1884 c-51 -21 -50 -17 -50 -324 0 -451 11 -798 26 -818 12 -16
14 -16 30 0 12 12 19 42 24 102 4 47 12 92 20 100 10 13 38 16 144 16 206 1
318 14 380 44 113 55 212 204 238 354 11 63 10 85 -5 155 -31 154 -110 267
-234 338 l-57 33 -251 3 c-137 1 -257 0 -265 -3z m546 -124 c125 -64 184 -172
184 -338 0 -87 -3 -104 -29 -159 -39 -81 -96 -142 -168 -179 l-58 -29 -202 0
c-181 0 -204 2 -220 18 -16 16 -18 46 -21 325 -2 169 -1 321 3 339 12 64 16
65 240 61 l202 -3 69 -35z"/>
<path d="M6453 1884 c-12 -3 -27 -11 -33 -19 -8 -9 -10 -166 -8 -558 3 -555 5
-577 40 -577 16 0 38 68 38 120 0 51 12 88 34 102 6 4 67 8 136 8 191 1 307
14 365 41 76 35 159 124 203 216 35 73 37 85 40 191 3 93 0 123 -17 173 -38
113 -119 212 -225 274 l-48 28 -252 3 c-138 1 -261 0 -273 -2z m538 -115 c73
-35 125 -87 163 -168 29 -61 31 -74 31 -171 -1 -127 -23 -193 -89 -267 -83
-92 -158 -113 -408 -113 l-157 0 -20 26 c-20 26 -21 38 -21 352 0 324 0 326
23 350 l22 24 200 -4 c191 -3 202 -4 256 -29z"/>
<path d="M7615 1870 c-19 -21 -20 -38 -23 -409 -3 -427 7 -704 26 -723 24 -24
43 14 51 106 5 48 14 93 20 99 8 8 82 14 216 19 216 7 265 15 330 53 50 29
122 105 158 166 32 53 67 184 67 245 0 115 -60 265 -137 342 -26 26 -75 63
-108 82 l-59 34 -261 4 c-258 4 -260 4 -280 -18z m563 -104 c72 -34 118 -81
162 -170 28 -55 30 -68 30 -166 0 -103 -2 -110 -35 -177 -40 -81 -104 -145
-173 -175 -84 -37 -462 -38 -476 -2 -11 28 -19 438 -11 567 5 94 11 132 22
143 14 13 46 15 217 12 198 -3 202 -3 264 -32z"/>
<path d="M9314 1883 c-18 -2 -40 -13 -50 -25 -18 -19 -19 -50 -22 -544 l-4
-525 27 -34 26 -35 312 0 c172 0 317 4 324 8 6 4 14 18 17 32 13 53 10 53
-306 63 -161 5 -294 10 -294 11 -1 0 -5 19 -8 41 -5 28 -3 46 8 60 14 19 29
20 296 25 263 5 283 7 296 25 41 56 7 65 -264 66 -240 0 -318 7 -333 30 -10
15 -2 99 11 112 4 4 132 11 286 14 271 6 314 10 314 36 -1 41 -9 42 -299 47
-251 5 -282 7 -298 23 -16 16 -18 40 -18 238 0 184 2 221 15 229 8 5 98 10
200 10 102 0 229 3 283 7 91 6 100 8 110 30 8 19 7 27 -7 41 -15 15 -47 17
-304 18 -158 1 -301 -1 -318 -3z"/>
<path d="M10550 1881 c-53 -11 -93 -35 -133 -80 -53 -59 -70 -98 -75 -176 -11
-168 51 -244 297 -367 68 -34 141 -78 161 -97 45 -43 65 -104 57 -178 -6 -59
-22 -86 -74 -128 -33 -26 -47 -30 -113 -33 -115 -6 -148 7 -228 88 -38 39 -74
70 -79 70 -6 0 -16 -7 -23 -15 -30 -37 55 -153 155 -211 46 -27 58 -29 145
-28 72 0 104 5 130 18 67 35 109 77 139 138 27 53 31 72 31 140 0 147 -52 209
-268 317 -203 102 -261 167 -250 282 7 65 45 121 102 148 106 52 178 37 276
-56 71 -66 95 -76 105 -44 13 42 -74 154 -152 194 -35 18 -154 29 -203 18z"/>
<path d="M13910 1878 c-25 -13 -25 -16 -33 -183 -4 -94 -6 -334 -4 -535 4
-381 8 -420 48 -428 22 -4 28 16 40 117 5 47 15 91 21 98 8 9 46 13 142 13
206 1 314 13 374 44 70 35 118 80 164 150 154 239 78 558 -167 702 l-48 27
-256 4 c-200 3 -261 1 -281 -9z m551 -109 c71 -34 122 -86 161 -168 41 -85 50
-208 23 -292 -36 -109 -104 -187 -203 -232 -41 -18 -70 -22 -229 -25 -101 -2
-194 -1 -208 2 -42 11 -47 57 -43 401 2 254 6 315 17 329 13 16 35 17 220 14
198 -3 208 -4 262 -29z"/>
<path d="M5349 1859 c-21 -21 -21 -25 -17 -412 4 -372 6 -395 26 -451 32 -86
63 -135 121 -189 72 -67 119 -87 211 -87 59 0 86 5 128 25 71 33 146 111 183
189 40 87 51 225 47 617 -3 284 -4 301 -22 315 -11 8 -24 14 -28 14 -23 0 -28
-74 -28 -383 0 -350 -8 -441 -41 -516 -22 -50 -88 -124 -131 -147 -36 -19
-180 -19 -217 0 -39 21 -106 96 -134 153 l-25 48 -3 413 c-3 353 -6 414 -19
422 -22 14 -28 12 -51 -11z"/>
<path d="M8809 1864 c-12 -14 -14 -109 -14 -560 0 -492 2 -545 17 -560 9 -9
20 -14 25 -11 13 8 22 604 14 901 -6 242 -11 267 -42 230z"/>
<path d="M11310 1870 c-13 -8 -15 -80 -15 -552 0 -561 2 -588 40 -588 21 0 26
15 39 113 10 82 14 93 36 104 18 9 104 13 326 13 354 0 330 8 343 -119 11
-106 36 -141 61 -81 9 22 11 158 9 564 -4 568 -5 581 -49 541 -19 -17 -20 -30
-20 -270 l0 -252 -26 -24 c-25 -23 -28 -24 -265 -27 -287 -5 -385 2 -399 28
-5 10 -12 132 -16 271 -4 140 -11 262 -16 272 -10 19 -25 21 -48 7z m718 -671
c37 -13 52 -50 40 -96 -7 -26 -16 -34 -46 -43 -39 -10 -560 -14 -598 -4 -25 7
-44 43 -44 82 0 58 -6 56 317 63 164 3 298 6 299 7 1 1 15 -3 32 -9z"/>
<path d="M2561 1304 c-68 -35 -167 -80 -220 -101 -53 -20 -97 -37 -97 -38 -1
0 5 -65 12 -145 14 -157 18 -755 5 -831 -4 -26 -4 -56 0 -67 13 -34 64 -54
123 -49 28 2 139 -7 246 -20 245 -31 490 -35 600 -10 89 20 177 61 185 86 4
13 19 20 56 24 167 20 348 216 357 388 7 114 -28 184 -129 264 -70 55 -91 91
-91 156 0 65 34 131 90 177 79 64 102 90 102 115 0 61 -84 78 -169 35 -129
-67 -216 -340 -148 -469 13 -24 43 -57 67 -74 23 -16 65 -51 93 -77 l49 -48
-4 -58 c-7 -103 -88 -202 -165 -202 -39 0 -39 0 -63 97 -73 285 -409 709 -679
857 -39 22 -71 43 -71 48 0 16 -26 6 -149 -58z"/>
</g>
</svg>
