<?xml version="1.0" encoding="UTF-8" standalone="no" ?>
<!DOCTYPE svg PUBLIC "-//W3C//DTD SVG 1.1//EN" "http://www.w3.org/Graphics/SVG/1.1/DTD/svg11.dtd">
<svg xmlns="http://www.w3.org/2000/svg" xmlns:xlink="http://www.w3.org/1999/xlink" version="1.1" width="500" height="500" viewBox="0 0 500 500" xml:space="preserve">
<desc>Created with Fabric.js 4.6.0</desc>
<defs>
</defs>
<g transform="matrix(0.11 0 0 -0.11 210.5 162)" id="07NSf2UpbGJbK7gBNZeFZ"  >
<path style="stroke: none; stroke-width: 1; stroke-dasharray: none; stroke-linecap: butt; stroke-dashoffset: 0; stroke-linejoin: miter; stroke-miterlimit: 4; fill: rgb(0,0,0); fill-rule: nonzero; opacity: 1;" vector-effect="non-scaling-stroke"  transform=" translate(-1432, -2395.89)" d="M 1173 2928 C 1109 2860 1041 2691 950 2375 C 900 2201 877 2110 867 2053 L 861 2022 L 1063 1947 C 1253 1876 1402 1830 1441 1830 C 1453 1830 1460 1842 1465 1872 C 1470 1902 1483 1926 1509 1951 C 1540 1981 1563 1991 1665 2019 C 1926 2090 1985 2144 1998 2322 L 2003 2399 L 1969 2433 C 1926 2476 1866 2490 1730 2490 L 1631 2490 L 1596 2558 C 1555 2635 1519 2677 1482 2692 C 1467 2698 1419 2705 1375 2709 L 1295 2715 L 1289 2813 C 1279 2959 1240 2998 1173 2928 z" stroke-linecap="round" />
</g>
<g transform="matrix(0.11 0 0 -0.11 313.5 239.5)" id="vJ_kvqQEp_ptZJJaZ2cSm"  >
<path style="stroke: none; stroke-width: 1; stroke-dasharray: none; stroke-linecap: butt; stroke-dashoffset: 0; stroke-linejoin: miter; stroke-miterlimit: 4; fill: rgb(0,0,0); fill-rule: nonzero; opacity: 1;" vector-effect="non-scaling-stroke"  transform=" translate(-2337.65, -1738.55)" d="M 2471 2164 C 2454 2145 2422 2094 2400 2051 L 2361 1973 L 2308 1966 C 2190 1951 2162 1933 2118 1847 C 2102 1814 2063 1763 2029 1731 C 1970 1673 1969 1672 1976 1629 C 1993 1509 2020 1466 2102 1424 C 2149 1400 2210 1327 2210 1294 C 2210 1269 2230 1271 2332 1305 C 2441 1343 2661 1448 2665 1465 C 2666 1471 2677 1534 2688 1605 C 2710 1745 2708 1778 2672 1880 C 2661 1910 2640 1977 2626 2028 C 2589 2160 2567 2200 2531 2200 C 2510 2200 2493 2190 2471 2164 z" stroke-linecap="round" />
</g>
<g transform="matrix(0.11 0 0 -0.11 146.5 330.5)" id="vhcy9kMFRk-WTKd0VS3I9"  >
<path style="stroke: none; stroke-width: 1; stroke-dasharray: none; stroke-linecap: butt; stroke-dashoffset: 0; stroke-linejoin: miter; stroke-miterlimit: 4; fill: rgb(0,0,0); fill-rule: nonzero; opacity: 1;" vector-effect="non-scaling-stroke"  transform=" translate(-885.67, -955.46)" d="M 882 1888 C 860 1860 673 1370 595 1135 C 472 766 382 380 392 263 C 394 239 392 220 388 220 C 370 220 315 280 266 353 C 230 407 191 488 150 592 C 116 679 81 759 71 772 L 52 794 L 32 761 C -46 632 34 265 169 130 C 252 47 383 4 477 29 C 512 38 536 37 602 24 C 749 -6 944 14 1365 101 C 1448 118 1484 120 1578 115 C 1703 107 1740 115 1759 156 C 1765 170 1770 193 1770 208 C 1770 223 1741 467 1705 750 C 1669 1033 1630 1351 1619 1455 C 1608 1560 1597 1655 1594 1667 C 1591 1684 1572 1694 1498 1718 C 1341 1769 912 1900 902 1900 C 897 1900 888 1894 882 1888 z" stroke-linecap="round" />
</g>
<g transform="matrix(0.11 0 0 -0.11 398 362)" id="bidvLPj7Qn53I_RBaP7UE"  >
<path style="stroke: none; stroke-width: 1; stroke-dasharray: none; stroke-linecap: butt; stroke-dashoffset: 0; stroke-linejoin: miter; stroke-miterlimit: 4; fill: rgb(0,0,0); fill-rule: nonzero; opacity: 1;" vector-effect="non-scaling-stroke"  transform=" translate(-3036.38, -697.7)" d="M 2561 1304 C 2493 1269 2394 1224 2341 1203 C 2288 1183 2244 1166 2244 1165 C 2243 1165 2249 1100 2256 1020 C 2270 863 2274 265 2261 189 C 2257 163 2257 133 2261 122 C 2274 88 2325 68 2384 73 C 2412 75 2523 66 2630 53 C 2875 22 3120 18 3230 43 C 3319 63 3407 104 3415 129 C 3419 142 3434 149 3471 153 C 3638 173 3819 369 3828 541 C 3835 655 3800 725 3699 805 C 3629 860 3608 896 3608 961 C 3608 1026 3642 1092 3698 1138 C 3777 1202 3800 1228 3800 1253 C 3800 1314 3716 1331 3631 1288 C 3502 1221 3415 948 3483 819 C 3496 795 3526 762 3550 745 C 3573 729 3615 694 3643 668 L 3692 620 L 3688 562 C 3681 459 3600 360 3523 360 C 3484 360 3484 360 3460 457 C 3387 742 3051 1166 2781 1314 C 2742 1336 2710 1357 2710 1362 C 2710 1378 2684 1368 2561 1304 z" stroke-linecap="round" />
</g>
</svg>